<?xml version="1.0" encoding="UTF-8"?>
<!DOCTYPE svg PUBLIC "-//W3C//DTD SVG 1.1//EN" "http://www.w3.org/Graphics/SVG/1.1/DTD/svg11.dtd">
<!-- Creator: CorelDRAW -->
<svg xmlns="http://www.w3.org/2000/svg" xml:space="preserve" width="61.1297mm" height="9.4775mm" version="1.1" style="shape-rendering:geometricPrecision; text-rendering:geometricPrecision; image-rendering:optimizeQuality; fill-rule:evenodd; clip-rule:evenodd"
viewBox="0 0 507.03 78.61"
 xmlns:xlink="http://www.w3.org/1999/xlink"
 xmlns:xodm="http://www.corel.com/coreldraw/odm/2003">
 <defs>
  <style type="text/css">
   <![CDATA[
    .fil0 {fill:#EF5F4C;fill-rule:nonzero}
   ]]>
  </style>
 </defs>
 <g id="Camada_x0020_1">
  <metadata id="CorelCorpID_0Corel-Layer"/>
  <path class="fil0" d="M23.39 61.55c5.54,5.72 13.07,9.38 20.98,10.28 -3.6,-3.43 -7.35,-6.94 -12.07,-8.76 -2.82,-1.15 -5.89,-1.43 -8.9,-1.52l0 0zm-7.75 -12.64c1.04,3.43 2.87,6.56 4.99,9.43 4.83,-0.49 9.84,-0.01 14.28,2.07 5.71,2.64 10.17,7.21 14.56,11.59 3.23,-0.21 6.41,-0.85 9.51,-1.79 -0.59,-0.77 -1.52,-1.12 -2.31,-1.61 -7.82,-4.73 -12.96,-12.74 -20.68,-17.59 -6,-3.83 -13.66,-4.07 -20.35,-2.1l0 0zm-1.75 -13.29c-0.52,3.32 0.08,6.7 0.66,9.98 8.35,-2.47 18,-1.73 25.09,3.67 6.67,4.71 11.49,11.58 18.33,16.06 1.84,1.11 3.77,2.26 5.92,2.61 5.15,-2.51 9.44,-6.67 12.68,-11.37 -6.27,2.81 -13.74,2 -19.51,-1.62 -8.19,-4.85 -13.48,-13.29 -21.63,-18.18 -6.46,-3.86 -14.64,-3.71 -21.54,-1.15zm-10.46 -18.46c-0,13.29 0,26.57 -0,39.85 -0.15,1.98 1.46,4.01 3.51,3.98 3.76,0.04 7.52,0 11.28,0.01 -4.99,-6.46 -7.93,-14.51 -7.99,-22.7 -0.19,-9.02 3.01,-18.08 8.91,-24.92 -4.08,0 -8.15,-0.03 -12.23,0 -1.94,-0.01 -3.59,1.85 -3.48,3.77l0 0zm18.84 -7.16c6.86,-6.28 16.04,-10.05 25.37,-9.99 7.85,-0.15 15.7,2.33 22.1,6.87 0.92,0.67 2.02,1.35 2.33,2.53 0.42,1.18 0.02,2.41 -0.35,3.54 -5.19,-4.74 -11.67,-8.18 -18.68,-9.14 -9.61,-1.53 -19.86,1.38 -27.18,7.8 -6.04,5.08 -10.44,12.33 -11.56,20.19 7.31,-2.2 15.66,-2.12 22.42,1.74 7.09,3.95 12.02,10.59 18.21,15.68 3.27,2.73 7.14,4.81 11.38,5.5 4.93,-5.43 7.5,-13.01 6.4,-20.3 -0.27,-2.61 -1.15,-5.08 -2.16,-7.48 -0.61,4.38 -0.62,8.86 -1.48,13.18 0.19,1.73 -0.11,3.45 -0.27,5.17 -2.42,-2.24 -3.57,-5.68 -3.29,-8.94 0.22,-3.46 1.93,-6.62 3.91,-9.39 -3.23,2.31 -6.49,4.59 -9.66,6.97 -0.16,-0.11 -0.48,-0.33 -0.64,-0.44 -0.22,1.96 -2.66,2.49 -3.94,3.7 0.35,-4.53 3.45,-8.56 7.69,-10.16 1,-0.74 2.65,-0.15 3.33,-1.3 -1.46,-0.26 -2.81,0.51 -4.25,0.52 -2.22,0.05 -4.45,0.13 -6.65,0.49 -0.11,-0.16 -0.33,-0.48 -0.44,-0.63 -1.64,1.42 -4.09,0.57 -6.08,1.03 2.49,-3.31 6.48,-5.62 10.7,-5.46 2.75,-0.16 5.4,0.66 8.01,1.39 -2.09,-1.26 -4.24,-2.47 -6.08,-4.09 -1.49,-0.67 -2.81,-1.64 -4.15,-2.55 0.2,-0.15 0.6,-0.46 0.8,-0.62 -0.36,0.05 -1.09,0.16 -1.45,0.21 -1.51,-1.04 -3.02,-2.08 -4.61,-3 3.01,-0.67 6.27,-0.77 9.13,0.52 4.38,1.86 7.41,5.88 9.33,10.1 0.7,-4.81 2.56,-9.86 6.63,-12.82 2.12,-1.63 4.78,-2.29 7.4,-2.61 -0.94,1.66 -2.12,3.27 -3.64,4.45 -0.83,1.48 -1.8,3.4 -3.52,3.88 0.07,0.15 0.21,0.45 0.27,0.59 -1.89,2.3 -3.76,4.62 -5.58,6.98 3.65,-1.88 7.83,-3.09 11.94,-2.14 2.41,0.58 4.47,2.13 6.1,3.96 -1.59,0.03 -3.19,-0.01 -4.78,-0.04 -0.12,-0.24 -0.37,-0.72 -0.5,-0.97l-0.03 0.96c-1.4,-0.22 -3.2,0.44 -4.3,-0.7 -0.01,0.15 -0.05,0.46 -0.07,0.62 -2.57,-0.12 -5.13,-0.47 -7.7,-0.31 3.76,1.42 7.56,3.6 9.56,7.23 1.31,2.3 1.59,5.03 1.28,7.62 -1.25,-1.24 -2.45,-2.56 -3.26,-4.13 -1.13,-0.74 -1.85,-1.9 -2.61,-2.99 -1.58,-1.69 -3.06,-3.49 -4.39,-5.38 3.49,8.91 1.81,19.48 -4.17,26.93 4.53,-0.23 9.38,-2.31 11.53,-6.53 1.77,0.8 2.6,2.96 1.83,4.74 -1.19,2.89 -2.89,5.53 -4.78,8.01 3.09,-0.01 6.17,0.03 9.25,-0.02 2.07,0.01 3.6,-2.01 3.5,-3.98 0.01,-13.47 0.01,-26.94 -0.03,-40.4 -0.23,-3.14 -4.02,-3.45 -6.45,-3.27 2.01,-2.42 6.02,-2.58 8.23,-0.36 1.37,1.17 1.71,3.05 1.69,4.76 -0.02,13.08 0,26.17 -0.01,39.25 0.07,2.56 -1.15,5.16 -3.4,6.47 -2.07,1.32 -4.62,0.91 -6.95,0.96 -2.93,0.04 -5.87,-0.08 -8.8,0.05 -3.43,2.98 -7.01,5.95 -11.27,7.68 -8.92,4.06 -19.4,4.42 -28.57,0.97 -5.06,-1.83 -9.61,-4.89 -13.5,-8.58 -4.95,-0.32 -9.95,0 -14.91,-0.15 -2.74,-0.09 -5.23,-2.09 -6.09,-4.67 -0.53,-1.69 -0.33,-3.49 -0.36,-5.23 0,-12.42 0.01,-24.84 -0,-37.26 -0.11,-2.66 1.35,-5.35 3.76,-6.54 1.4,-0.84 3.09,-0.72 4.66,-0.73 4.62,0.03 9.23,-0.02 13.85,0.03l-0 0z"/>
  <path class="fil0" d="M9.54 4.65c2.51,-0.09 5.04,-0.13 7.56,0.02 1.49,0.53 1.2,2.36 1.21,3.6 -3.39,-0 -6.79,0 -10.19,-0 0.02,-1.26 -0.26,-3.34 1.42,-3.62z"/>
  <path class="fil0" d="M35.1 13.08c3.49,-1.52 7.97,0.25 9.29,3.87 2,4.31 -1.74,9.96 -6.54,9.53 -3.76,0.34 -7.05,-3.16 -7.06,-6.81 -0.05,-2.8 1.72,-5.51 4.31,-6.58z"/>
  <path class="fil0" d="M129.92 63.44c-0.98,0 -1.83,-0.35 -2.53,-1.05 -0.7,-0.7 -1.05,-1.57 -1.05,-2.6l0 -51.19 7.3 0 0 51.19c0,1.03 -0.35,1.9 -1.05,2.6 -0.7,0.7 -1.59,1.05 -2.67,1.05zm-18.75 -48.1c-1.03,0 -1.85,-0.33 -2.46,-0.98 -0.61,-0.66 -0.91,-1.45 -0.91,-2.39 0,-1.03 0.3,-1.85 0.91,-2.46 0.61,-0.61 1.43,-0.91 2.46,-0.91l37.57 0c1.03,0 1.85,0.3 2.46,0.91 0.61,0.61 0.91,1.43 0.91,2.46 0,0.94 -0.3,1.73 -0.91,2.39 -0.61,0.66 -1.43,0.98 -2.46,0.98l-37.57 0z"/>
  <path id="_1" class="fil0" d="M153.09 39.42c0,-2.81 0.69,-5.33 2.07,-7.55 1.38,-2.22 3.24,-3.99 5.58,-5.3 2.34,-1.31 4.92,-1.97 7.73,-1.97 2.81,0 4.9,0.46 6.28,1.37 1.38,0.91 1.91,2 1.58,3.27 -0.14,0.66 -0.41,1.16 -0.81,1.51 -0.4,0.35 -0.85,0.57 -1.37,0.67 -0.52,0.09 -1.08,0.07 -1.69,-0.07 -3,-0.61 -5.69,-0.66 -8.08,-0.14 -2.39,0.52 -4.27,1.47 -5.65,2.88 -1.38,1.41 -2.07,3.18 -2.07,5.34l-3.58 0zm0.07 24.02c-1.12,0 -1.99,-0.29 -2.6,-0.88 -0.61,-0.59 -0.91,-1.46 -0.91,-2.63l0 -31.39c0,-1.12 0.3,-1.99 0.91,-2.6 0.61,-0.61 1.47,-0.91 2.6,-0.91 1.17,0 2.05,0.29 2.63,0.88 0.59,0.59 0.88,1.46 0.88,2.63l0 31.39c0,1.12 -0.29,1.99 -0.88,2.6 -0.58,0.61 -1.46,0.91 -2.63,0.91z"/>
  <path id="_2" class="fil0" d="M196.98 63.72c-3.42,0 -6.47,-0.84 -9.16,-2.53 -2.69,-1.69 -4.83,-4 -6.43,-6.95 -1.59,-2.95 -2.39,-6.27 -2.39,-9.97 0,-3.75 0.85,-7.08 2.56,-10.01 1.71,-2.93 4.03,-5.24 6.95,-6.95 2.93,-1.71 6.21,-2.56 9.87,-2.56 3.7,0 6.99,0.86 9.87,2.56 2.88,1.71 5.17,4.04 6.88,6.99 1.71,2.95 2.56,6.27 2.56,9.97l-2.74 0c0,3.7 -0.78,7.01 -2.35,9.94 -1.57,2.93 -3.7,5.24 -6.39,6.95 -2.69,1.71 -5.77,2.56 -9.23,2.56zm1.47 -6.32c2.34,0 4.45,-0.57 6.32,-1.72 1.87,-1.15 3.35,-2.71 4.42,-4.7 1.08,-1.99 1.62,-4.23 1.62,-6.71 0,-2.53 -0.54,-4.79 -1.62,-6.78 -1.08,-1.99 -2.54,-3.56 -4.39,-4.71 -1.85,-1.15 -3.97,-1.72 -6.36,-1.72 -2.39,0 -4.53,0.57 -6.43,1.72 -1.9,1.15 -3.39,2.7 -4.49,4.67 -1.1,1.97 -1.65,4.24 -1.65,6.81 0,2.48 0.55,4.72 1.65,6.71 1.1,1.99 2.59,3.56 4.46,4.7 1.87,1.15 4.03,1.72 6.46,1.72zm15.73 6.11c-1.08,0 -1.95,-0.34 -2.63,-1.02 -0.68,-0.68 -1.02,-1.53 -1.02,-2.56l0 -10.74 1.33 -7.44 5.83 2.53 0 15.66c0,1.03 -0.33,1.88 -0.98,2.56 -0.66,0.68 -1.5,1.02 -2.53,1.02z"/>
  <path id="_3" class="fil0" d="M239.26 63.37c-1.45,0 -2.57,-0.77 -3.37,-2.32l-14.89 -31.39c-0.37,-0.8 -0.41,-1.58 -0.11,-2.35 0.3,-0.77 0.9,-1.37 1.79,-1.79 0.8,-0.42 1.6,-0.49 2.42,-0.21 0.82,0.28 1.44,0.82 1.86,1.61l13.9 29.99 -3.37 0 13.76 -29.99c0.42,-0.8 1.07,-1.33 1.93,-1.61 0.87,-0.28 1.74,-0.21 2.63,0.21 0.84,0.37 1.4,0.96 1.69,1.76 0.28,0.8 0.23,1.59 -0.14,2.39l-14.89 31.39c-0.7,1.55 -1.78,2.32 -3.23,2.32z"/>
  <path id="_4" class="fil0" d="M281.39 63.72c-3.89,0 -7.34,-0.83 -10.36,-2.49 -3.02,-1.66 -5.38,-3.96 -7.09,-6.88 -1.71,-2.93 -2.56,-6.29 -2.56,-10.08 0,-3.84 0.81,-7.22 2.42,-10.15 1.62,-2.93 3.85,-5.22 6.71,-6.88 2.86,-1.66 6.13,-2.49 9.83,-2.49 3.65,0 6.79,0.81 9.41,2.42 2.62,1.62 4.62,3.84 6,6.67 1.38,2.83 2.07,6.1 2.07,9.8 0,0.89 -0.3,1.63 -0.91,2.21 -0.61,0.58 -1.38,0.88 -2.32,0.88l-28.3 0 0 -5.62 28.09 0 -2.88 1.97c-0.05,-2.34 -0.51,-4.44 -1.4,-6.29 -0.89,-1.85 -2.15,-3.31 -3.79,-4.39 -1.64,-1.08 -3.63,-1.61 -5.97,-1.61 -2.67,0 -4.95,0.58 -6.85,1.76 -1.9,1.17 -3.34,2.77 -4.32,4.81 -0.98,2.04 -1.47,4.34 -1.47,6.92 0,2.57 0.59,4.87 1.76,6.88 1.17,2.01 2.79,3.61 4.85,4.78 2.06,1.17 4.42,1.76 7.09,1.76 1.45,0 2.94,-0.27 4.46,-0.81 1.52,-0.54 2.75,-1.16 3.69,-1.86 0.7,-0.52 1.46,-0.78 2.28,-0.81 0.82,-0.02 1.53,0.22 2.14,0.74 0.8,0.7 1.22,1.47 1.26,2.32 0.05,0.84 -0.33,1.57 -1.12,2.18 -1.59,1.26 -3.57,2.29 -5.93,3.09 -2.36,0.8 -4.62,1.19 -6.78,1.19z"/>
  <path id="_5" class="fil0" d="M316.09 63.44c-2.06,0 -3.89,-0.56 -5.48,-1.69 -1.59,-1.12 -2.83,-2.65 -3.72,-4.56 -0.89,-1.92 -1.33,-4.17 -1.33,-6.74l0 -38.34c0,-1.08 0.32,-1.93 0.95,-2.56 0.63,-0.63 1.49,-0.95 2.56,-0.95 1.03,0 1.87,0.32 2.53,0.95 0.66,0.63 0.98,1.49 0.98,2.56l0 38.34c0,1.73 0.33,3.16 0.98,4.28 0.66,1.12 1.5,1.69 2.53,1.69l1.76 0c0.94,0 1.7,0.33 2.28,0.98 0.59,0.66 0.88,1.5 0.88,2.53 0,1.08 -0.44,1.93 -1.33,2.56 -0.89,0.63 -2.04,0.95 -3.44,0.95l-0.14 0z"/>
  <path id="_6" class="fil0" d="M344.95 63.79c-3.7,0 -6.98,-0.83 -9.83,-2.49 -2.86,-1.66 -5.09,-3.97 -6.71,-6.92 -1.62,-2.95 -2.42,-6.32 -2.42,-10.11 0,-3.84 0.84,-7.23 2.53,-10.18 1.69,-2.95 4,-5.26 6.95,-6.92 2.95,-1.66 6.3,-2.49 10.04,-2.49 3.79,0 7.15,0.83 10.08,2.49 2.93,1.66 5.22,3.97 6.88,6.92 1.66,2.95 2.52,6.34 2.56,10.18l-3.16 1.69c0,3.46 -0.73,6.54 -2.18,9.23 -1.45,2.69 -3.45,4.8 -6,6.32 -2.55,1.52 -5.47,2.28 -8.74,2.28zm0.7 14.82c-3.7,0 -6.95,-0.69 -9.76,-2.07 -2.81,-1.38 -5.13,-3.27 -6.95,-5.65 -0.52,-0.56 -0.74,-1.17 -0.67,-1.83 0.07,-0.66 0.41,-1.19 1.02,-1.61 0.61,-0.42 1.29,-0.56 2.04,-0.42 0.75,0.14 1.33,0.49 1.76,1.05 1.36,1.69 3.1,3.04 5.23,4.07 2.13,1.03 4.6,1.54 7.41,1.54 2.62,0 4.99,-0.63 7.09,-1.9 2.11,-1.26 3.78,-3.04 5.02,-5.34 1.24,-2.29 1.86,-4.99 1.86,-8.08l0 -10.67 2.04 -4.07 3.3 0.63 0 14.33c0,3.79 -0.84,7.2 -2.53,10.22 -1.69,3.02 -3.98,5.41 -6.88,7.16 -2.9,1.76 -6.23,2.63 -9.97,2.63zm-0.14 -19.73c2.76,0 5.21,-0.62 7.34,-1.86 2.13,-1.24 3.8,-2.96 5.02,-5.16 1.22,-2.2 1.83,-4.73 1.83,-7.58 0,-2.86 -0.61,-5.4 -1.83,-7.62 -1.22,-2.22 -2.89,-3.96 -5.02,-5.2 -2.13,-1.24 -4.58,-1.86 -7.34,-1.86 -2.76,0 -5.22,0.62 -7.37,1.86 -2.15,1.24 -3.84,2.97 -5.06,5.2 -1.22,2.22 -1.83,4.76 -1.83,7.62 0,2.86 0.61,5.38 1.83,7.58 1.22,2.2 2.9,3.92 5.06,5.16 2.15,1.24 4.61,1.86 7.37,1.86z"/>
  <path id="_7" class="fil0" d="M377.81 39.77c0.14,-2.9 0.9,-5.5 2.28,-7.8 1.38,-2.29 3.18,-4.1 5.41,-5.41 2.22,-1.31 4.69,-1.97 7.41,-1.97 2.15,0 3.82,0.3 4.99,0.91 1.17,0.61 1.61,1.5 1.33,2.67 -0.19,0.7 -0.5,1.17 -0.95,1.41 -0.44,0.23 -0.98,0.33 -1.62,0.28 -0.63,-0.05 -1.35,-0.09 -2.14,-0.14 -2.62,-0.23 -4.95,0.03 -6.99,0.81 -2.04,0.77 -3.65,1.95 -4.85,3.55 -1.19,1.59 -1.79,3.49 -1.79,5.69l-3.09 0zm0.42 23.67c-0.84,0 -1.5,-0.23 -1.97,-0.7 -0.47,-0.47 -0.7,-1.12 -0.7,-1.97l0 -33.08c0,-0.84 0.23,-1.5 0.7,-1.97 0.47,-0.47 1.12,-0.7 1.97,-0.7 0.84,0 1.5,0.23 1.97,0.7 0.47,0.47 0.7,1.12 0.7,1.97l0 33.08c0,0.84 -0.23,1.5 -0.7,1.97 -0.47,0.47 -1.12,0.7 -1.97,0.7z"/>
  <path id="_8" class="fil0" d="M421.85 63.79c-3.6,0 -6.84,-0.85 -9.69,-2.56 -2.86,-1.71 -5.12,-4.04 -6.78,-6.99 -1.66,-2.95 -2.49,-6.27 -2.49,-9.97 0,-3.75 0.85,-7.09 2.56,-10.04 1.71,-2.95 4.04,-5.28 6.99,-6.99 2.95,-1.71 6.27,-2.56 9.97,-2.56 3.7,0 7.01,0.85 9.94,2.56 2.93,1.71 5.24,4.04 6.95,6.99 1.71,2.95 2.59,6.3 2.63,10.04l-2.18 1.69c0,3.37 -0.78,6.4 -2.35,9.09 -1.57,2.69 -3.7,4.82 -6.39,6.39 -2.69,1.57 -5.75,2.35 -9.16,2.35zm0.56 -4.92c2.72,0 5.14,-0.63 7.27,-1.9 2.13,-1.26 3.82,-3.01 5.06,-5.23 1.24,-2.22 1.86,-4.72 1.86,-7.48 0,-2.81 -0.62,-5.31 -1.86,-7.51 -1.24,-2.2 -2.93,-3.94 -5.06,-5.23 -2.13,-1.29 -4.55,-1.93 -7.27,-1.93 -2.67,0 -5.08,0.64 -7.23,1.93 -2.15,1.29 -3.86,3.03 -5.13,5.23 -1.26,2.2 -1.9,4.7 -1.9,7.51 0,2.76 0.63,5.26 1.9,7.48 1.26,2.22 2.97,3.97 5.13,5.23 2.15,1.26 4.57,1.9 7.23,1.9zm16.78 4.56c-0.8,0 -1.45,-0.25 -1.97,-0.74 -0.52,-0.49 -0.77,-1.14 -0.77,-1.93l0 -12.01 1.33 -5.55 4.14 1.05 0 16.5c0,0.8 -0.26,1.44 -0.77,1.93 -0.52,0.49 -1.17,0.74 -1.97,0.74z"/>
  <path id="_9" class="fil0" d="M504.36 63.44c-0.8,0 -1.45,-0.25 -1.97,-0.74 -0.52,-0.49 -0.77,-1.14 -0.77,-1.93l0 -20.22c0,-3.32 -0.87,-5.96 -2.6,-7.9 -1.73,-1.94 -3.96,-2.91 -6.67,-2.91 -2.9,0 -5.28,0.97 -7.13,2.91 -1.85,1.94 -2.75,4.53 -2.7,7.76l-4.85 0c0.05,-3.14 0.73,-5.9 2.04,-8.29 1.31,-2.39 3.11,-4.24 5.41,-5.55 2.29,-1.31 4.89,-1.97 7.8,-1.97 2.76,0 5.21,0.66 7.34,1.97 2.13,1.31 3.79,3.16 4.99,5.55 1.19,2.39 1.79,5.2 1.79,8.43l0 20.22c0,0.8 -0.25,1.44 -0.74,1.93 -0.49,0.49 -1.13,0.74 -1.93,0.74zm-49.16 0c-0.84,0 -1.51,-0.25 -2,-0.74 -0.49,-0.49 -0.74,-1.14 -0.74,-1.93l0 -33.01c0,-0.8 0.25,-1.45 0.74,-1.97 0.49,-0.51 1.16,-0.77 2,-0.77 0.8,0 1.44,0.26 1.93,0.77 0.49,0.52 0.74,1.17 0.74,1.97l0 33.01c0,0.8 -0.25,1.44 -0.74,1.93 -0.49,0.49 -1.13,0.74 -1.93,0.74zm24.65 0c-0.8,0 -1.45,-0.25 -1.97,-0.74 -0.51,-0.49 -0.77,-1.14 -0.77,-1.93l0 -20.22c0,-3.32 -0.87,-5.96 -2.6,-7.9 -1.73,-1.94 -3.96,-2.91 -6.67,-2.91 -2.9,0 -5.29,0.95 -7.16,2.84 -1.87,1.9 -2.81,4.37 -2.81,7.41l-3.86 0c0.09,-3 0.76,-5.65 2,-7.97 1.24,-2.32 2.94,-4.13 5.09,-5.44 2.15,-1.31 4.59,-1.97 7.3,-1.97 2.76,0 5.21,0.66 7.34,1.97 2.13,1.31 3.79,3.16 4.99,5.55 1.19,2.39 1.79,5.2 1.79,8.43l0 20.22c0,0.8 -0.25,1.44 -0.74,1.93 -0.49,0.49 -1.14,0.74 -1.93,0.74z"/>
 </g>
</svg>
