<?xml version="1.0" encoding="UTF-8"?>
<!DOCTYPE svg PUBLIC "-//W3C//DTD SVG 1.1//EN" "http://www.w3.org/Graphics/SVG/1.1/DTD/svg11.dtd">
<!-- Creator: CorelDRAW -->
<svg xmlns="http://www.w3.org/2000/svg" xml:space="preserve" width="4.5427mm" height="4.6486mm" version="1.1" style="shape-rendering:geometricPrecision; text-rendering:geometricPrecision; image-rendering:optimizeQuality; fill-rule:evenodd; clip-rule:evenodd"
viewBox="0 0 2.65 2.71"
 xmlns:xlink="http://www.w3.org/1999/xlink"
 xmlns:xodm="http://www.corel.com/coreldraw/odm/2003">
 <defs>
  <style type="text/css">
   <![CDATA[
    .fil0 {fill:#737373;fill-rule:nonzero}
   ]]>
  </style>
 </defs>
 <g id="Camada_x0020_1">
  <metadata id="CorelCorpID_0Corel-Layer"/>
  <path class="fil0" d="M1.05 0c-0.58,0 -1.05,0.47 -1.05,1.05 0,0.58 0.47,1.05 1.05,1.05 0.23,0 0.44,-0.07 0.61,-0.2l0.81 0.81 0.17 -0.17 -0.8 -0.81c0.16,-0.18 0.25,-0.42 0.25,-0.68 0,-0.58 -0.47,-1.05 -1.05,-1.05zm0 0.12c0.51,0 0.93,0.41 0.93,0.93 0,0.51 -0.41,0.93 -0.93,0.93 -0.51,0 -0.93,-0.41 -0.93,-0.93 0,-0.51 0.41,-0.93 0.93,-0.93z"/>
 </g>
</svg>
