<?xml version="1.0" encoding="UTF-8"?>
<!DOCTYPE svg PUBLIC "-//W3C//DTD SVG 1.1//EN" "http://www.w3.org/Graphics/SVG/1.1/DTD/svg11.dtd">
<!-- Creator: CorelDRAW -->
<svg xmlns="http://www.w3.org/2000/svg" xml:space="preserve" width="4.6276mm" height="4.6267mm" version="1.1" style="shape-rendering:geometricPrecision; text-rendering:geometricPrecision; image-rendering:optimizeQuality; fill-rule:evenodd; clip-rule:evenodd"
viewBox="0 0 2.2 2.2"
 xmlns:xlink="http://www.w3.org/1999/xlink"
 xmlns:xodm="http://www.corel.com/coreldraw/odm/2003">
 <defs>
  <style type="text/css">
   <![CDATA[
    .fil0 {fill:#EF5F4C}
   ]]>
  </style>
 </defs>
 <g id="Camada_x0020_1">
  <metadata id="CorelCorpID_0Corel-Layer"/>
  <g id="_2833901259920">
   <path class="fil0" d="M1.65 0.85c0,0.07 0.06,0.27 0.08,0.34l0.17 0.66c0.04,0.15 0.07,0.2 -0.05,0.3 -0.03,0.02 -0.1,0.07 -0.15,0.05 -0.05,-0.01 -0.07,-0.06 -0.09,-0.11 -0.09,-0.19 -0.34,-0.7 -0.49,-0.76l-0.43 0.36c-0.15,0.13 0.04,0.23 0.04,0.37 0,0.07 -0.08,0.12 -0.16,0.1 -0.06,-0.01 -0.23,-0.2 -0.28,-0.25 -0.05,-0.05 -0.23,-0.21 -0.25,-0.27 -0.02,-0.08 0.03,-0.16 0.09,-0.16 0.13,-0.01 0.25,0.19 0.38,0.05l0.36 -0.43c-0.05,-0.15 -0.57,-0.41 -0.76,-0.49 -0.05,-0.02 -0.1,-0.05 -0.11,-0.09 -0.02,-0.05 0.03,-0.12 0.05,-0.15 0.1,-0.12 0.15,-0.08 0.3,-0.04 0.1,0.02 0.95,0.25 1,0.25 0.04,-0.07 0.28,-0.29 0.35,-0.35 0.06,-0.05 0.34,-0.3 0.46,-0.18 0.14,0.15 -0.22,0.52 -0.34,0.64 -0.04,0.04 -0.14,0.14 -0.18,0.17l0 -0z"/>
  </g>
 </g>
</svg>
