<?xml version="1.0" encoding="UTF-8"?>
<!DOCTYPE svg PUBLIC "-//W3C//DTD SVG 1.1//EN" "http://www.w3.org/Graphics/SVG/1.1/DTD/svg11.dtd">
<!-- Creator: CorelDRAW -->
<svg xmlns="http://www.w3.org/2000/svg" xml:space="preserve" width="4.2376mm" height="3.4643mm" version="1.1" style="shape-rendering:geometricPrecision; text-rendering:geometricPrecision; image-rendering:optimizeQuality; fill-rule:evenodd; clip-rule:evenodd"
viewBox="0 0 1.94 1.59"
 xmlns:xlink="http://www.w3.org/1999/xlink"
 xmlns:xodm="http://www.corel.com/coreldraw/odm/2003">
 <defs>
  <style type="text/css">
   <![CDATA[
    .fil0 {fill:#EF5F4C;fill-rule:nonzero}
   ]]>
  </style>
 </defs>
 <g id="Camada_x0020_1">
  <metadata id="CorelCorpID_0Corel-Layer"/>
  <path class="fil0" d="M1.29 0.47c0,-0.1 0.08,-0.18 0.17,-0.18 0.09,0 0.17,0.08 0.17,0.18 0,0.1 -0.08,0.18 -0.17,0.18 -0.09,0 -0.17,-0.08 -0.17,-0.18zm0.52 -0.34l0 0.94 -0.24 -0.23c-0.04,-0.03 -0.09,-0.03 -0.13,0l-0.25 0.26 -0.49 -0.61c-0.04,-0.05 -0.1,-0.05 -0.14,-0l-0.45 0.55 0 -0.92 1.7 0 0 0zm0 -0.13l-1.7 0c-0.07,0 -0.12,0.06 -0.12,0.13l0 1.33c0,0.07 0.06,0.13 0.12,0.13l1.7 0c0.07,0 0.12,-0.06 0.12,-0.13l0 -1.33c0,-0.07 -0.06,-0.13 -0.12,-0.13z"/>
 </g>
</svg>
